<svg width="195" height="36" viewBox="0 0 195 36" fill="none" xmlns="http://www.w3.org/2000/svg">
<g clip-path="url(#clip0_332_7203)">
<path d="M32.9492 25.5044C32.9492 26.1775 32.6358 26.8122 32.1014 27.2213L28.0859 30.2958V8.25709C28.0859 7.61903 27.3179 7.29563 26.8615 7.74147L20.012 14.4317C19.8731 14.5673 19.7948 14.7532 19.7948 14.9473V21.0067L14.4846 12.101C13.9787 11.2525 14.1122 10.169 14.8089 9.4686L22.0714 2.16825C24.2224 0.00611254 27.7183 -0.00465713 29.8825 2.14419L32.0265 4.27298C32.6171 4.85935 32.9492 5.65717 32.9492 6.48939V25.5044Z" fill="#9DC93C"/>
<path d="M0 10.4553C0 9.80476 0.292912 9.18876 0.797521 8.77814L4.86332 5.4696V27.7232C4.86332 28.364 5.6369 28.6862 6.09177 28.2349L12.9413 21.4385C13.0777 21.3031 13.1544 21.1189 13.1544 20.9268V14.9926L18.4646 23.8983C18.9705 24.7468 18.8371 25.8304 18.1403 26.5307L10.8778 33.8311C8.72686 35.9932 5.23095 36.004 3.06673 33.8551L0.922702 31.7263C0.332133 31.14 0 30.3422 0 29.5099V10.4553Z" fill="#9DC93C"/>
<path d="M110.873 23.7896C110.873 24.6096 111.538 25.2743 112.358 25.2743H122.101L126.099 30.0536H108.202C106.216 30.0877 105.096 29.0637 105.096 27.1861V5.96598H110.873V23.7896Z" fill="#9DC93C"/>
<path d="M134.968 24.8826V30.0435H129.183V15.5173L134.968 24.8826Z" fill="#9DC93C"/>
<path d="M174.897 15.5254C174.897 16.3812 175.929 16.8128 176.538 16.2118L186.949 5.94031C190.075 7.45291 190.182 11.8668 187.133 13.529L179.978 17.4294L194.421 30.0435H185.904L176.588 19.3669C176.002 18.6957 174.897 19.1098 174.897 20.0006V30.0435H169.032V5.94031H174.897V15.5254Z" fill="#9DC93C"/>
<path d="M147.444 8.77987C147.444 9.30175 148.16 9.45156 148.414 8.99555C149.355 7.30532 150.803 5.94031 154.32 5.94031C157.453 5.94035 159.722 7.40397 161.069 9.31475C162.427 11.2423 162.721 14.2678 162.721 18.1412V30.0095H156.981V14.7782C156.981 11.4841 154.822 9.95733 152.16 9.95733C149.497 9.95739 147.339 12.1159 147.339 14.7782V30.0095H141.715V5.94031H147.444V8.77987Z" fill="#9DC93C"/>
<path d="M63.27 23.235C63.6315 23.8029 64.5109 23.5469 64.511 22.8736V5.99248H70.2713V29.9903H63.3796L52.1394 12.7068C51.7741 12.1453 50.902 12.4039 50.9019 13.0737V25.5081C50.9019 25.8798 51.2035 26.1811 51.5752 26.1811H54.9527L51.29 29.9903H45.1416V5.99248H52.2923L63.27 23.235Z" fill="#9DC93C"/>
<path d="M86.0956 15.4065C86.6679 16.3739 88.0673 16.3754 88.6419 15.4093L94.2429 5.99248H100.867L91.9535 17.9743L100.867 29.9903H94.2429L88.6246 21.0078C88.044 20.0795 86.6914 20.081 86.1129 21.0106L80.5258 29.9903H73.9014L82.2797 17.9743L73.9014 5.99248H80.5258L86.0956 15.4065Z" fill="#9DC93C"/>
<path d="M129.183 5.94031C132.378 5.94038 134.968 8.53039 134.968 11.7252V20.4052L129.183 11.0399V5.94031Z" fill="#9DC93C"/>
</g>
<defs>
<clipPath id="clip0_332_7203">
<rect width="195" height="36" fill="white"/>
</clipPath>
</defs>
</svg>
