<svg width="66" height="16" viewBox="0 0 66 16" fill="none" xmlns="http://www.w3.org/2000/svg">
<g clip-path="url(#clip0_332_8483)">
<path d="M24.8579 9.22587H24.8383L23.6057 4.25H22.1204L20.8621 9.16557H20.8418L19.7034 4.25302H18.1201L20.0298 11.4695H21.6364L22.8382 6.55777H22.8585L24.0814 11.4695H25.6578L27.5946 4.25302H26.0386L24.8579 9.22587ZM32.4341 6.69422C32.2822 6.50072 32.0819 6.35067 31.8535 6.25922C31.552 6.14547 31.231 6.09247 30.9089 6.10312C30.6202 6.10757 30.3364 6.17852 30.0796 6.31047C29.7866 6.45732 29.5436 6.68762 29.3814 6.97242H29.3513V4.25302H27.9188V11.4695H29.3513V8.73057C29.3513 8.19827 29.4387 7.81577 29.6136 7.58307C29.7886 7.35037 30.0715 7.23427 30.4626 7.23477C30.8056 7.23477 31.0453 7.34107 31.1795 7.55367C31.3137 7.76627 31.3816 8.08747 31.3816 8.51872V11.4695H32.814V8.25557C32.8163 7.95862 32.7874 7.66222 32.7281 7.37122C32.6815 7.12657 32.5811 6.89527 32.4341 6.69422ZM38.3448 10.3062V7.59212C38.3448 7.27497 38.2742 7.02042 38.1329 6.82842C37.9912 6.63507 37.804 6.47972 37.5879 6.37607C37.3548 6.26552 37.1057 6.19252 36.8498 6.15967C36.5852 6.12297 36.3185 6.10432 36.0514 6.10387C35.761 6.10357 35.4713 6.13212 35.1866 6.18907C34.9144 6.24077 34.6529 6.33817 34.4131 6.47707C34.1859 6.60952 33.9924 6.79272 33.8477 7.01237C33.6899 7.26447 33.6024 7.55417 33.5943 7.85147H35.0268C35.0539 7.56877 35.1489 7.36597 35.3103 7.24832C35.4716 7.13072 35.6978 7.06437 35.9813 7.06437C36.1011 7.06382 36.2208 7.07217 36.3394 7.08927C36.4429 7.10302 36.5426 7.13737 36.6326 7.19027C36.7179 7.24172 36.7877 7.31517 36.8347 7.40292C36.8903 7.51752 36.9162 7.64432 36.9101 7.77157C36.9175 7.83442 36.9094 7.89812 36.8865 7.95707C36.8636 8.01607 36.8267 8.06862 36.7789 8.11007C36.6649 8.19667 36.533 8.25667 36.3929 8.28572C36.2103 8.33017 36.0245 8.36067 35.8373 8.37697C35.6277 8.39757 35.4156 8.42447 35.201 8.45762C34.9848 8.49167 34.7706 8.53752 34.5594 8.59482C34.3571 8.64702 34.1656 8.73402 33.9932 8.85192C33.8242 8.97152 33.6855 9.12902 33.5883 9.31182C33.4764 9.53937 33.4227 9.79122 33.4323 10.0446C33.426 10.2843 33.4726 10.5224 33.5687 10.742C33.6542 10.9314 33.7834 11.0978 33.9457 11.2275C34.1134 11.3586 34.3057 11.4547 34.5111 11.5103C34.7382 11.5728 34.9729 11.6035 35.2085 11.6015C35.5301 11.6015 35.85 11.554 36.1577 11.4605C36.4653 11.3671 36.7438 11.1963 36.9666 10.9644C36.973 11.051 36.9848 11.1371 37.0021 11.2223C37.0186 11.306 37.0405 11.3886 37.0677 11.4695H38.5227C38.4423 11.3196 38.394 11.1545 38.381 10.9848C38.3547 10.7596 38.3427 10.533 38.3448 10.3062ZM36.9124 9.44677C36.9108 9.55502 36.9025 9.66302 36.8875 9.77022C36.8686 9.91102 36.8222 10.0468 36.751 10.1698C36.6675 10.3104 36.5491 10.427 36.4072 10.5083C36.2529 10.6028 36.034 10.65 35.7506 10.65C35.6388 10.6502 35.5272 10.6398 35.4173 10.6191C35.3172 10.6021 35.2212 10.566 35.1346 10.5128C35.0533 10.4622 34.987 10.3909 34.9424 10.3062C34.8924 10.2059 34.868 10.0948 34.8715 9.98282C34.8674 9.86737 34.8917 9.75267 34.9424 9.64882C34.9878 9.56347 35.0516 9.48927 35.1293 9.43172C35.2122 9.37157 35.3044 9.32547 35.4022 9.29522C35.5065 9.26157 35.6127 9.23462 35.7204 9.21457C35.835 9.19497 35.9466 9.17687 36.0634 9.16407C36.1803 9.15122 36.2896 9.13312 36.3921 9.11352C36.4914 9.09467 36.5894 9.06952 36.6854 9.03817C36.7687 9.01237 36.8458 8.96947 36.9116 8.91227L36.9124 9.44677ZM41.025 4.67672H39.5925V6.24412H38.7195V7.20462H39.588V10.2874C39.5786 10.5071 39.6237 10.7257 39.7192 10.9237C39.8009 11.0807 39.9253 11.2113 40.0781 11.3007C40.2413 11.3922 40.4204 11.452 40.6058 11.4771C40.8147 11.508 41.0257 11.5231 41.2368 11.5223C41.3793 11.5223 41.5233 11.5223 41.6719 11.5125C41.8073 11.5074 41.9422 11.4938 42.076 11.4718V10.3575C42.0058 10.3724 41.9348 10.3827 41.8633 10.3884C41.788 10.3952 41.7126 10.399 41.6311 10.399C41.3891 10.399 41.227 10.3575 41.1456 10.2768C41.0642 10.1962 41.025 10.0348 41.025 9.79207V7.20462H42.076V6.24412H41.0227L41.025 4.67672ZM46.9561 9.17912C46.862 9.01522 46.7333 8.87372 46.5791 8.76447C46.4172 8.64982 46.2394 8.55942 46.0514 8.49607C45.8531 8.42972 45.6488 8.37242 45.4399 8.32492C45.2311 8.27742 45.0396 8.23372 44.8443 8.19377C44.6682 8.15827 44.4943 8.11272 44.3234 8.05732C44.189 8.01612 44.064 7.94902 43.9555 7.85977C43.9096 7.82187 43.8729 7.77397 43.8484 7.71977C43.8238 7.66552 43.812 7.60642 43.8137 7.54692C43.8083 7.45482 43.8362 7.36387 43.8921 7.29057C43.9453 7.22552 44.0129 7.17392 44.0897 7.13977C44.1717 7.10532 44.2583 7.08322 44.3468 7.07417C44.4345 7.06637 44.5226 7.06312 44.6106 7.06437C44.8418 7.05852 45.071 7.10867 45.2786 7.21067C45.4663 7.30792 45.5711 7.49487 45.5907 7.77157H46.9553C46.9406 7.48702 46.8554 7.21057 46.7073 6.96712C46.5748 6.76002 46.3969 6.58572 46.1871 6.45747C45.9676 6.32517 45.7264 6.23277 45.4746 6.18457C45.2039 6.13007 44.9283 6.10307 44.6521 6.10387C44.3739 6.10357 44.0963 6.12882 43.8228 6.17927C43.567 6.22482 43.321 6.31382 43.0953 6.44242C42.8812 6.56507 42.7021 6.74052 42.575 6.95207C42.4345 7.20517 42.3664 7.49212 42.3783 7.78137C42.3718 7.98442 42.4208 8.18537 42.52 8.36262C42.6142 8.52087 42.7431 8.65567 42.897 8.75692C43.0603 8.86522 43.2379 8.95022 43.4247 9.00952C43.623 9.07357 43.8273 9.12937 44.0354 9.17612C44.4421 9.25492 44.8425 9.36327 45.2334 9.50032C45.5199 9.60737 45.6631 9.76897 45.6631 9.98507C45.6676 10.0982 45.6356 10.2097 45.5719 10.3032C45.5123 10.3864 45.4351 10.4554 45.3457 10.5053C45.2513 10.5572 45.1496 10.5945 45.0441 10.6161C44.9397 10.6395 44.833 10.6516 44.726 10.6523C44.5882 10.6526 44.4509 10.6356 44.3174 10.6018C44.1926 10.5708 44.0743 10.5177 43.9683 10.445C43.8666 10.3733 43.7819 10.2801 43.7203 10.1721C43.6539 10.0495 43.6209 9.91177 43.6245 9.77247H42.2554C42.2568 10.0797 42.3387 10.3813 42.4929 10.647C42.6325 10.8742 42.8226 11.0662 43.0485 11.2079C43.2864 11.3536 43.5483 11.4558 43.822 11.5095C44.1141 11.5707 44.4117 11.6013 44.7101 11.6007C45.0038 11.601 45.2967 11.5722 45.5847 11.5148C45.8556 11.4627 46.1144 11.3604 46.3477 11.2132C46.5882 11.0641 46.7843 10.8533 46.9157 10.6027C47.0471 10.3521 47.109 10.0709 47.0948 9.78832C47.1015 9.57692 47.0529 9.36747 46.9538 9.18062L46.9561 9.17912ZM49.8051 4.25151L47.0775 11.468H48.6735L49.2397 9.86142H51.9372L52.4822 11.468H54.1302L51.4307 4.25302L49.8051 4.25151ZM49.6544 8.67852L50.5947 6.03077H50.6142L51.5242 8.67852H49.6544ZM59.0857 6.95207C58.8887 6.69402 58.6367 6.48332 58.3477 6.33537C58.0187 6.17282 57.6547 6.09312 57.2877 6.10312C56.9807 6.09922 56.6767 6.16467 56.3982 6.29462C56.1212 6.43147 55.8902 6.64672 55.7347 6.91362H55.7142V6.24412H54.3497V13.2993H55.7822V10.8234H55.8017C55.9702 11.0736 56.2022 11.274 56.4742 11.404C56.7537 11.5369 57.0592 11.6044 57.3682 11.6015C57.7167 11.6081 58.0617 11.5305 58.3732 11.3753C58.6537 11.2317 58.8992 11.0278 59.0912 10.7782C59.2872 10.5214 59.4327 10.2301 59.5207 9.91947C59.6152 9.59107 59.6627 9.25097 59.6617 8.90922C59.6632 8.54892 59.6157 8.19007 59.5207 7.84242C59.4337 7.52062 59.2862 7.21842 59.0857 6.95207ZM58.1667 9.48897C58.1312 9.67627 58.0607 9.85527 57.9597 10.0167C57.7882 10.2572 57.5357 10.4273 57.2482 10.4952C56.9612 10.5632 56.6587 10.5244 56.3982 10.3862C56.2407 10.2959 56.1072 10.1692 56.0092 10.0167C55.9072 9.85507 55.8357 9.67627 55.7972 9.48897C55.7532 9.28667 55.7312 9.08012 55.7317 8.87302C55.7312 8.66252 55.7512 8.45242 55.7912 8.24577C55.8277 8.05597 55.8982 7.87432 55.9992 7.70972C56.0962 7.55587 56.2277 7.42682 56.3832 7.33277C56.5622 7.22797 56.7667 7.17567 56.9742 7.18202C57.1782 7.17652 57.3792 7.22877 57.5547 7.33277C57.7122 7.42902 57.8452 7.56032 57.9437 7.71652C58.0477 7.88232 58.1212 8.06537 58.1607 8.25707C58.2052 8.45992 58.2272 8.66697 58.2262 8.87457C58.2277 9.08072 58.2087 9.28652 58.1697 9.48897H58.1667ZM65.2392 7.84622C65.1532 7.52297 65.0057 7.21937 64.8042 6.95207C64.6077 6.69407 64.3557 6.48337 64.0672 6.33537C63.7377 6.17297 63.3737 6.09327 63.0062 6.10312C62.6992 6.09947 62.3957 6.16492 62.1172 6.29462C61.8402 6.43167 61.6092 6.64687 61.4532 6.91362H61.4337V6.24412H60.0662V13.2993H61.4982V10.8234H61.5187C61.6867 11.0734 61.9187 11.2738 62.1907 11.404C62.4697 11.5369 62.7757 11.6044 63.0847 11.6015C63.4332 11.6081 63.7782 11.5305 64.0902 11.3753C64.3707 11.2317 64.6157 11.0278 64.8072 10.7782C65.0032 10.5214 65.1492 10.2301 65.2372 9.91947C65.3322 9.59117 65.3797 9.25102 65.3787 8.90922C65.3817 8.55037 65.3357 8.19277 65.2422 7.84622H65.2392ZM63.8822 9.48897C63.8472 9.67637 63.7767 9.85542 63.6752 10.0167C63.5692 10.1788 63.4247 10.312 63.2542 10.4041C63.0842 10.4963 62.8932 10.5446 62.6997 10.5446C62.5062 10.5446 62.3157 10.4963 62.1452 10.4041C61.9752 10.312 61.8307 10.1788 61.7247 10.0167C61.6232 9.85492 61.5512 9.67617 61.5127 9.48897C61.4692 9.28662 61.4472 9.08012 61.4472 8.87302C61.4467 8.66247 61.4667 8.45242 61.5077 8.24577C61.5467 8.05537 61.6202 7.87367 61.7247 7.70972C61.8217 7.55622 61.9532 7.42722 62.1082 7.33277C62.2872 7.22797 62.4922 7.17567 62.6992 7.18202C62.9032 7.17642 63.1047 7.22872 63.2797 7.33277C63.4377 7.42897 63.5712 7.56032 63.6697 7.71652C63.7737 7.88232 63.8472 8.06537 63.8867 8.25707C63.9312 8.45992 63.9532 8.66697 63.9522 8.87457C63.9512 9.08097 63.9297 9.28677 63.8882 9.48897H63.8822Z" fill="white" fill-opacity="0.5"/>
<path d="M15.4817 7.66227C15.4117 5.74657 14.6044 3.932 13.2284 2.5974C11.8523 1.2628 10.0139 0.511362 8.09701 0.500002H8.06081C6.76991 0.499043 5.50106 0.834189 4.37899 1.47246C3.25695 2.11073 2.32042 3.03013 1.66154 4.14019C1.00267 5.25026 0.644157 6.51277 0.621285 7.80342C0.598413 9.09412 0.911967 10.3685 1.5311 11.5012L0.873677 15.4352C0.872607 15.4432 0.873267 15.4514 0.875617 15.4592C0.877962 15.467 0.881947 15.4742 0.887297 15.4804C0.892647 15.4865 0.899242 15.4914 0.906642 15.4948C0.914042 15.4982 0.922082 15.5 0.930222 15.5H0.941532L4.83251 14.6345C5.83786 15.1172 6.93881 15.3676 8.05401 15.3673C8.12491 15.3673 8.19576 15.3673 8.26661 15.3673C9.24761 15.3393 10.2134 15.1173 11.1081 14.7141C12.0028 14.3109 12.8088 13.7345 13.4796 13.0182C14.1504 12.3018 14.6727 11.4597 15.0163 10.5404C15.3599 9.62117 15.5181 8.64297 15.4817 7.66227ZM8.22966 14.0743C8.17086 14.0743 8.11206 14.0743 8.05401 14.0743C7.06841 14.0756 6.09691 13.8397 5.22154 13.3868L5.0225 13.2827L2.38378 13.9062L2.87081 11.2366L2.75773 11.0451C2.2176 10.1242 1.92667 9.07852 1.9136 8.01097C1.90052 6.94347 2.16575 5.89092 2.68315 4.95709C3.20056 4.02325 3.9523 3.24029 4.86433 2.68534C5.77636 2.13038 6.81721 1.82257 7.88441 1.79222C7.94371 1.79222 8.00326 1.79222 8.06306 1.79222C9.67431 1.797 11.2192 2.43454 12.3648 3.56749C13.5105 4.70043 14.1652 6.23812 14.188 7.84917C14.2107 9.46027 13.5996 11.0158 12.4864 12.1806C11.3732 13.3455 9.84691 14.0264 8.23646 14.0766L8.22966 14.0743Z" fill="white" fill-opacity="0.5"/>
<path d="M5.4699 4.34503C5.37805 4.34683 5.28748 4.36703 5.20356 4.40446C5.11965 4.44188 5.04409 4.49577 4.98138 4.56292C4.8042 4.74461 4.30888 5.18189 4.28023 6.10017C4.25158 7.01842 4.89317 7.92692 4.98288 8.05432C5.0726 8.18172 6.2095 10.1653 8.08225 10.9697C9.183 11.444 9.6655 11.5254 9.97835 11.5254C10.1073 11.5254 10.2045 11.5118 10.3063 11.5058C10.6493 11.4847 11.4236 11.0881 11.5925 10.6569C11.7614 10.2256 11.7727 9.84867 11.7282 9.77327C11.6837 9.69787 11.5616 9.64357 11.3776 9.54707C11.1937 9.45057 10.2912 8.96807 10.1216 8.90022C10.0587 8.87092 9.991 8.85332 9.9218 8.84822C9.87675 8.85057 9.83295 8.86387 9.7942 8.88702C9.75545 8.91012 9.7229 8.94237 9.6994 8.98087C9.54865 9.16862 9.2026 9.57647 9.08645 9.69412C9.0611 9.72332 9.02985 9.74687 8.9948 9.76327C8.95975 9.77962 8.9216 9.78842 8.8829 9.78912C8.8116 9.78597 8.74185 9.76717 8.6786 9.73407C8.13195 9.50192 7.63355 9.16947 7.2092 8.75397C6.8127 8.36317 6.4763 7.91577 6.211 7.42632C6.1085 7.23632 6.211 7.13832 6.3045 7.04937C6.398 6.96037 6.49825 6.83752 6.59475 6.73117C6.67395 6.64037 6.73995 6.53887 6.7908 6.42962C6.8171 6.37892 6.8304 6.32247 6.82945 6.26537C6.82855 6.20822 6.81345 6.15227 6.7855 6.10242C6.74105 6.00742 6.40855 5.07332 6.2525 4.69862C6.12585 4.37821 5.97505 4.36765 5.8431 4.35785C5.73455 4.35031 5.61015 4.34654 5.48575 4.34277H5.4699" fill="white" fill-opacity="0.5"/>
</g>
<defs>
<clipPath id="clip0_332_8483">
<rect width="66" height="16" fill="white"/>
</clipPath>
</defs>
</svg>
